# xmcd
#
# Track frame offsets:
#	150
#	66617
#	101695
#	137870
#	161685
#	200540
#	267852
#	278577
#
# Disc length: 3866 seconds
#
# Revision: 2
# Processed by: cddbd v1.5.1PL0 Copyright (c) Steve Scherf et al.
# Submitted via: audiograbber 1.83.01
#
DISCID=7a0f1808
DTITLE=NAKAI - BLACK LODGE - Two World Concerto
DYEAR=1900
DGENRE=Ethnic
TTITLE0=Spirit Call
TTITLE1=Lake that Speaks
TTITLE2=Crow Smoke
TTITLE3=Far From The Water
TTITLE4=Flag Song
TTITLE5=Destiny Song and Mask Dance
TTITLE6=Seasons
TTITLE7=Zuni Corn Grinding Song
EXTD=
EXTT0=
EXTT1=
EXTT2=
EXTT3=
EXTT4=
EXTT5=
EXTT6=
EXTT7=
PLAYORDER=
